<svg
  width="1920"
  height="1814"
  viewBox="0 0 1920 1814"
  fill="none"
  xmlns="http://www.w3.org/2000/svg"
>
  <rect
    x="1922"
    y="1814"
    width="1922"
    height="1816"
    transform="rotate(-180 1922 1814)"
    fill="url(#paint0_linear)"
  />
  <path
    d="M1387.02 -23.9409C1387.02 305.299 1654.31 572.509 1983.64 572.509V-23.9409L1387.02 -23.9409Z"
    fill="#8C80FC"
  />
  <path
    d="M1419.64 1813.87C1419.64 1484.63 1152.35 1217.42 823.019 1217.42L823.019 1813.87H1419.64Z"
    fill="#59B1FE"
    fill-opacity="0.4"
  />
  <path
    d="M572.691 806.484C805.499 1039.29 1183.44 1039.24 1416.32 806.363L994.566 384.61L572.691 806.484Z"
    fill="#6E9CFD"
    fill-opacity="0.4"
  />
  <path
    d="M1968.54 827.696C1650.25 827.696 1391.94 1079.84 1391.94 1390.51L1968.54 1390.51L1968.54 827.696Z"
    fill="#7E8DFC"
  />
  <path
    d="M-57.0371 1126.41C261.246 1126.41 519.563 1378.56 519.563 1689.23L-57.0371 1689.23L-57.0371 1126.41Z"
    fill="#58B4FE"
  />
  <path
    d="M496.614 -110C496.614 204.498 241.437 459.743 -72.9783 459.743L-72.9784 -110L496.614 -110Z"
    fill="#52B7FE"
  />
  <defs>
    <linearGradient
      id="paint0_linear"
      x1="3844"
      y1="1770.76"
      x2="1464.23"
      y2="2698.35"
      gradientUnits="userSpaceOnUse"
    >
      <stop stop-color="#35D3FF" />
      <stop offset="1" stop-color="#A963FB" />
    </linearGradient>
  </defs>
</svg>
