<svg
  width="108"
  height="67"
  viewBox="0 0 108 67"
  fill="none"
  xmlns="http://www.w3.org/2000/svg"
>
  <path
    d="M40.1837 27.2732C36.6188 25.2666 35.3415 20.751 37.4245 17.2335C39.4826 13.758 44.1142 12.5126 47.722 14.5434C51.2868 16.55 52.5641 21.0656 50.4812 24.5831C48.3982 28.1005 43.7914 29.304 40.1837 27.2732Z"
    fill="white"
  />
  <path
    d="M96.6885 39.6094C102.665 29.5177 99.0703 16.4397 88.7194 10.6133C78.3256 4.76269 64.9547 8.29109 58.9786 18.3828L43.0589 45.266C43.0589 45.266 83.1989 62.3889 96.6885 39.6094Z"
    fill="white"
  />
  <path
    d="M7.58798 37.1124C3.42207 44.1473 5.8842 53.2381 13.0998 57.2996C20.3153 61.3612 29.5966 58.9366 33.7625 51.9017L44.8468 33.1839C44.8898 33.2081 16.9613 21.284 7.58798 37.1124ZM18.6791 47.8779C16.7893 46.8142 16.1358 44.4364 17.2269 42.5939C18.3179 40.7514 20.7568 40.1143 22.6466 41.1781C24.5364 42.2418 25.1899 44.6196 24.0988 46.4621C23.0507 48.3287 20.6118 48.9659 18.6791 47.8779Z"
    fill="white"
  />
</svg>
