<svg
  width="42"
  height="42"
  viewBox="0 0 42 42"
  fill="none"
  xmlns="http://www.w3.org/2000/svg"
>
  <g clip-path="url(#clip0)">
    <path
      d="M10.3 16.4883H1.47146C0.65878 16.4883 0 17.1471 0 17.9597V40.0311C0 40.8438 0.65878 41.5026 1.47146 41.5026H10.3C11.1127 41.5026 11.7715 40.8438 11.7715 40.0311V17.9597C11.7714 17.1471 11.1126 16.4883 10.3 16.4883ZM8.82856 38.5597H2.94283V19.4312H8.82856V38.5597Z"
      fill="current"
    />
    <path
      d="M25.0141 0.302734H16.1856C15.3729 0.302734 14.7141 0.961514 14.7141 1.77419V40.0313C14.7141 40.844 15.3729 41.5027 16.1856 41.5027H25.0141C25.8268 41.5027 26.4856 40.844 26.4856 40.0313V1.77419C26.4856 0.961514 25.8268 0.302734 25.0141 0.302734ZM23.5428 38.5598H17.657V3.24556H23.5428V38.5598Z"
      fill="current"
    />
    <path
      d="M39.7285 12.0737H30.8999C30.0872 12.0737 29.4285 12.7325 29.4285 13.5452V40.0309C29.4285 40.8436 30.0872 41.5023 30.8999 41.5023H39.7285C40.5412 41.5023 41.1999 40.8436 41.1999 40.0309V13.5452C41.1999 12.7325 40.5412 12.0737 39.7285 12.0737ZM38.257 38.5594H32.3713V15.0166H38.257V38.5594Z"
      fill="current"
    />
  </g>
  <defs>
    <clipPath id="clip0">
      <rect
        width="41.2"
        height="41.2"
        fill="white"
        transform="translate(0 0.302734)"
      />
    </clipPath>
  </defs>
</svg>
