<svg
  width="42"
  height="43"
  viewBox="0 0 42 43"
  fill="none"
  xmlns="http://www.w3.org/2000/svg"
>
  <path
    d="M16.324 0C7.31803 0 0 7.31803 0 16.324C0 25.3299 7.31803 32.6479 16.324 32.6479C19.8873 32.6479 23.1806 31.5001 25.8663 29.5572L38.4993 42.1602L41.2 39.4596L28.717 26.9465C31.1701 24.0883 32.6479 20.3787 32.6479 16.324C32.6479 7.31803 25.3299 0 16.324 0ZM16.324 1.92047C24.2909 1.92047 30.7275 8.35703 30.7275 16.324C30.7275 24.2909 24.2909 30.7275 16.324 30.7275C8.35703 30.7275 1.92047 24.2909 1.92047 16.324C1.92047 8.35703 8.35703 1.92047 16.324 1.92047Z"
    fill="current"
  />
</svg>
