<svg
  width="42"
  height="45"
  viewBox="0 0 42 45"
  fill="none"
  xmlns="http://www.w3.org/2000/svg"
>
  <path
    d="M0 40.6243C0.0022991 42.6549 1.6479 44.3005 3.67855 44.3028H30.8999C36.5879 44.3034 41.1994 39.6928 41.2 34.0047C41.2004 30.026 38.909 26.403 35.3141 24.698V9.7244C35.3141 9.52925 35.2366 9.34211 35.0987 9.20416L26.2701 0.375628C26.1322 0.237682 25.945 0.160156 25.7499 0.160156H3.67855C1.6479 0.162455 0.0022991 1.80806 0 3.83871V40.6243ZM39.7284 34.0029C39.7284 38.8787 35.7757 42.8314 30.8999 42.8314C26.024 42.8314 22.0713 38.8787 22.0713 34.0029C22.0713 29.127 26.024 25.1743 30.8999 25.1743C35.7735 25.1798 39.7229 29.1292 39.7284 34.0029ZM26.4856 2.67197L32.8023 8.98869H28.6927C27.4743 8.98731 26.487 7.99998 26.4856 6.78156V2.67197ZM1.47142 3.83871C1.4728 2.62037 2.46022 1.63296 3.67855 1.63158H25.0142V6.78156C25.0165 8.81221 26.6621 10.4578 28.6927 10.4601H33.8427V24.132C28.3925 22.5058 22.6559 25.6057 21.0297 31.0559C19.6845 35.5642 21.5656 40.4109 25.5999 42.8314H3.67855C2.46022 42.83 1.4728 41.8426 1.47142 40.6243V3.83871Z"
    fill="current"
  />
  <path
    d="M11.7712 14.139C11.7712 14.5453 12.1007 14.8747 12.507 14.8747H30.164C30.5703 14.8747 30.8997 14.5453 30.8997 14.139C30.8997 13.7327 30.5703 13.4033 30.164 13.4033H12.507C12.1007 13.4033 11.7712 13.7327 11.7712 14.139Z"
    fill="current"
  />
  <path
    d="M5.15002 19.2883H19.8642C20.2705 19.2883 20.5999 18.9589 20.5999 18.5526C20.5999 18.1463 20.2705 17.8169 19.8642 17.8169H5.15002C4.74372 17.8169 4.41431 18.1463 4.41431 18.5526C4.41431 18.9589 4.74372 19.2883 5.15002 19.2883Z"
    fill="current"
  />
  <path
    d="M22.8069 22.2314H16.9213C16.515 22.2314 16.1855 22.5609 16.1855 22.9672C16.1855 23.3735 16.515 23.7029 16.9213 23.7029H22.8069C23.2132 23.7029 23.5427 23.3735 23.5427 22.9672C23.5427 22.5609 23.2132 22.2314 22.8069 22.2314Z"
    fill="current"
  />
  <path
    d="M5.15002 28.1169H18.3928C18.7991 28.1169 19.1285 27.7875 19.1285 27.3812C19.1285 26.9749 18.7991 26.6455 18.3928 26.6455H5.15002C4.74372 26.6455 4.41431 26.9749 4.41431 27.3812C4.41431 27.7875 4.74372 28.1169 5.15002 28.1169Z"
    fill="current"
  />
  <path
    d="M5.15002 14.8747H9.56428C9.97058 14.8747 10.3 14.5453 10.3 14.139C10.3 13.7327 9.97058 13.4033 9.56428 13.4033H5.15002C4.74372 13.4033 4.41431 13.7327 4.41431 14.139C4.41431 14.5453 4.74372 14.8747 5.15002 14.8747Z"
    fill="current"
  />
  <path
    d="M30.1639 17.8169H22.8068C22.4005 17.8169 22.071 18.1463 22.071 18.5526C22.071 18.9589 22.4005 19.2883 22.8068 19.2883H30.1639C30.5702 19.2883 30.8996 18.9589 30.8996 18.5526C30.8996 18.1463 30.5702 17.8169 30.1639 17.8169Z"
    fill="current"
  />
  <path
    d="M5.15002 23.7029H13.9785C14.3848 23.7029 14.7143 23.3735 14.7143 22.9672C14.7143 22.5609 14.3848 22.2314 13.9785 22.2314H5.15002C4.74372 22.2314 4.41431 22.5609 4.41431 22.9672C4.41431 23.3735 4.74372 23.7029 5.15002 23.7029Z"
    fill="current"
  />
  <path
    d="M16.9217 35.4746H13.9789C13.5726 35.4746 13.2432 35.804 13.2432 36.2103C13.2432 36.6166 13.5726 36.946 13.9789 36.946H16.9217C17.328 36.946 17.6574 36.6166 17.6574 36.2103C17.6574 35.804 17.328 35.4746 16.9217 35.4746Z"
    fill="current"
  />
  <path
    d="M5.15002 36.946H11.0357C11.442 36.946 11.7714 36.6166 11.7714 36.2103C11.7714 35.804 11.442 35.4746 11.0357 35.4746H5.15002C4.74372 35.4746 4.41431 35.804 4.41431 36.2103C4.41431 36.6166 4.74372 36.946 5.15002 36.946Z"
    fill="current"
  />
  <path
    d="M5.15002 32.531H9.56428C9.97058 32.531 10.3 32.2016 10.3 31.7953C10.3 31.389 9.97058 31.0596 9.56428 31.0596H5.15002C4.74372 31.0596 4.41431 31.389 4.41431 31.7953C4.41431 32.2016 4.74372 32.531 5.15002 32.531Z"
    fill="current"
  />
  <path
    d="M5.15002 10.4607H13.9785C14.3848 10.4607 14.7143 10.1313 14.7143 9.72497C14.7143 9.31867 14.3848 8.98926 13.9785 8.98926H5.15002C4.74372 8.98926 4.41431 9.31867 4.41431 9.72497C4.41431 10.1313 4.74372 10.4607 5.15002 10.4607Z"
    fill="current"
  />
  <path
    d="M16.9212 31.0596H12.507C12.1007 31.0596 11.7712 31.389 11.7712 31.7953C11.7712 32.2016 12.1007 32.531 12.507 32.531H16.9212C17.3275 32.531 17.6569 32.2016 17.6569 31.7953C17.6569 31.389 17.3275 31.0596 16.9212 31.0596Z"
    fill="current"
  />
  <path
    d="M26.7502 29.0231C26.438 29.2832 26.3958 29.7471 26.6558 30.0593C26.6558 30.0593 26.6558 30.0594 26.6559 30.0594C26.6559 30.0594 29.4455 33.4113 30.3317 34.4703C30.421 34.5771 30.5668 34.7013 30.822 34.7342C30.8477 34.7376 30.8738 34.7383 30.8997 34.7383H36.0497C36.456 34.7383 36.7854 34.4089 36.7854 34.0026C36.7854 33.5963 36.456 33.2669 36.0497 33.2669H31.2443L27.7864 29.1173C27.5264 28.8051 27.0624 28.7629 26.7502 29.0231V29.0231Z"
    fill="current"
  />
</svg>
