<svg
  width="42"
  height="42"
  viewBox="0 0 42 42"
  fill="none"
  xmlns="http://www.w3.org/2000/svg"
>
  <path
    d="M36.5962 16.8993L33.3517 15.8178L34.8795 12.7621C35.0344 12.4423 35.0862 12.0823 35.0278 11.7318C34.9693 11.3812 34.8036 11.0575 34.5533 10.8051L30.8968 7.14865C30.6432 6.89473 30.3163 6.7267 29.9622 6.6682C29.6081 6.60969 29.2445 6.66365 28.9227 6.82248L25.867 8.35032L24.7855 5.10582C24.6713 4.76762 24.4545 4.47344 24.1653 4.26422C23.876 4.05499 23.5288 3.94113 23.1718 3.93848H18.0218C17.662 3.93755 17.3109 4.04975 17.0182 4.25923C16.7256 4.4687 16.5062 4.76485 16.391 5.10582L15.3095 8.35032L12.2538 6.82248C11.934 6.6676 11.574 6.6158 11.2235 6.67422C10.8729 6.73265 10.5492 6.89841 10.2968 7.14865L6.64035 10.8051C6.38643 11.0588 6.2184 11.3857 6.1599 11.7398C6.10139 12.0939 6.15535 12.4575 6.31418 12.7793L7.84201 15.835L4.59751 16.9165C4.25932 17.0307 3.96514 17.2475 3.75592 17.5367C3.54669 17.8259 3.43283 18.1732 3.43018 18.5301V23.6801C3.42925 24.04 3.54145 24.3911 3.75093 24.6838C3.9604 24.9764 4.25655 25.1958 4.59751 25.311L7.84201 26.3925L6.31418 29.4481C6.1593 29.768 6.1075 30.128 6.16592 30.4785C6.22434 30.8291 6.39011 31.1528 6.64035 31.4051L10.2968 35.0616C10.5505 35.3156 10.8774 35.4836 11.2315 35.5421C11.5856 35.6006 11.9492 35.5466 12.271 35.3878L15.3267 33.86L16.4082 37.1045C16.5233 37.4454 16.7428 37.7416 17.0354 37.9511C17.328 38.1605 17.6791 38.2727 18.039 38.2718H23.189C23.5489 38.2727 23.9 38.1605 24.1926 37.9511C24.4853 37.7416 24.7047 37.4454 24.8198 37.1045L25.9013 33.86L28.957 35.3878C29.2748 35.5388 29.6313 35.5885 29.9783 35.5301C30.3252 35.4718 30.6459 35.3082 30.8968 35.0616L34.5533 31.4051C34.8073 31.1515 34.9753 30.8246 35.0338 30.4705C35.0923 30.1164 35.0383 29.7528 34.8795 29.431L33.3517 26.3753L36.5962 25.2938C36.9344 25.1796 37.2286 24.9628 37.4378 24.6736C37.647 24.3843 37.7609 24.0371 37.7635 23.6801V18.5301C37.7644 18.1703 37.6522 17.8192 37.4428 17.5265C37.2333 17.2339 36.9371 17.0145 36.5962 16.8993ZM34.3302 22.4441L32.2702 23.1308C31.7965 23.2845 31.3619 23.5393 30.9965 23.8777C30.6311 24.2161 30.3438 24.63 30.1543 25.0905C29.9649 25.5511 29.8779 26.0473 29.8994 26.5449C29.9209 27.0424 30.0504 27.5293 30.2788 27.9718L31.2573 29.9288L29.369 31.8171L27.4635 30.7871C27.0233 30.5678 26.5411 30.4456 26.0495 30.4289C25.558 30.4121 25.0685 30.5012 24.6144 30.69C24.1602 30.8788 23.752 31.163 23.4172 31.5233C23.0824 31.8836 22.829 32.3117 22.674 32.7785L21.9873 34.8385H19.2578L18.5712 32.7785C18.4175 32.3048 18.1627 31.8702 17.8243 31.5048C17.4859 31.1394 17.072 30.8521 16.6115 30.6626C16.1509 30.4732 15.6547 30.3862 15.1571 30.4077C14.6596 30.4292 14.1727 30.5587 13.7302 30.7871L11.7732 31.7656L9.88485 29.8773L10.9148 27.9718C11.1433 27.5293 11.2728 27.0424 11.2943 26.5449C11.3158 26.0473 11.2288 25.5511 11.0394 25.0905C10.8499 24.63 10.5625 24.2161 10.1972 23.8777C9.83182 23.5393 9.39722 23.2845 8.92351 23.1308L6.86351 22.4441V19.7661L8.92351 19.0795C9.39722 18.9258 9.83182 18.671 10.1972 18.3326C10.5625 17.9942 10.8499 17.5803 11.0394 17.1198C11.2288 16.6592 11.3158 16.163 11.2943 15.6654C11.2728 15.1679 11.1433 14.681 10.9148 14.2385L9.93635 12.333L11.8247 10.4446L13.7302 11.4231C14.1727 11.6516 14.6596 11.7811 15.1571 11.8026C15.6547 11.8241 16.1509 11.7371 16.6115 11.5477C17.072 11.3582 17.4859 11.0709 17.8243 10.7055C18.1627 10.3401 18.4175 9.90552 18.5712 9.43181L19.2578 7.37182H21.9358L22.6225 9.43181C22.7762 9.90552 23.031 10.3401 23.3694 10.7055C23.7078 11.0709 24.1217 11.3582 24.5822 11.5477C25.0428 11.7371 25.539 11.8241 26.0366 11.8026C26.5341 11.7811 27.021 11.6516 27.4635 11.4231L29.4205 10.4446L31.3088 12.333L30.2788 14.2385C30.0595 14.6787 29.9373 15.1609 29.9206 15.6525C29.9038 16.144 29.9928 16.6335 30.1817 17.0876C30.3705 17.5418 30.6547 17.95 31.015 18.2848C31.3753 18.6196 31.8034 18.873 32.2702 19.028L34.3302 19.7146V22.4441ZM20.5968 14.2385C19.2387 14.2385 17.9111 14.6412 16.7819 15.3957C15.6527 16.1502 14.7726 17.2227 14.2529 18.4774C13.7332 19.7321 13.5972 21.1128 13.8621 22.4448C14.1271 23.7768 14.7811 25.0003 15.7414 25.9606C16.7017 26.9209 17.9252 27.5749 19.2572 27.8399C20.5892 28.1048 21.9699 27.9688 23.2246 27.4491C24.4793 26.9294 25.5517 26.0493 26.3063 24.9201C27.0608 23.7908 27.4635 22.4632 27.4635 21.1051C27.4635 19.284 26.7401 17.5374 25.4523 16.2497C24.1646 14.9619 22.418 14.2385 20.5968 14.2385V14.2385ZM20.5968 24.5385C19.9178 24.5385 19.254 24.3371 18.6894 23.9599C18.1248 23.5826 17.6847 23.0464 17.4249 22.419C17.165 21.7917 17.097 21.1013 17.2295 20.4353C17.362 19.7693 17.689 19.1576 18.1691 18.6774C18.6493 18.1973 19.261 17.8703 19.927 17.7378C20.593 17.6053 21.2834 17.6733 21.9107 17.9332C22.5381 18.193 23.0743 18.6331 23.4516 19.1977C23.8288 19.7623 24.0302 20.4261 24.0302 21.1051C24.0302 22.0157 23.6685 22.889 23.0246 23.5329C22.3807 24.1768 21.5074 24.5385 20.5968 24.5385Z"
    fill="current"
  />
</svg>
